HIERARCHY
ROOT Hips
{
	OFFSET 0.00000 0.00000 0.00000
	CHANNELS 6 Xposition Yposition Zposition Zrotation Yrotation Xrotation 
	JOINT LHipJoint
	{
		OFFSET 0 0 0
		CHANNELS 3 Zrotation Yrotation Xrotation
		JOINT LeftHip
		{
			OFFSET 1.39187 -1.60231 0.69152
			CHANNELS 3 Zrotation Yrotation Xrotation
			JOINT LeftKnee
			{
				OFFSET 2.43314 -6.68499 0.00000
				CHANNELS 3 Zrotation Yrotation Xrotation
				JOINT LeftAnkle
				{
					OFFSET 2.32059 -6.37578 0.00000
					CHANNELS 3 Zrotation Yrotation Xrotation
					JOINT LeftToe
					{
						OFFSET 0.23021 -0.63250 1.71305
						CHANNELS 3 Zrotation Yrotation Xrotation
						End Site
						{
							OFFSET 0.00000 -0.00000 0.91647
						}
					}
				}
			}
		}
	}
	JOINT RHipJoint
	{
		OFFSET 0 0 0
		CHANNELS 3 Zrotation Yrotation Xrotation
		JOINT RightHip
		{
			OFFSET -1.19407 -1.60231 0.69152
			CHANNELS 3 Zrotation Yrotation Xrotation
			JOINT RightKnee
			{
				OFFSET -2.44411 -6.71513 0.00000
				CHANNELS 3 Zrotation Yrotation Xrotation
				JOINT RightAnkle
				{
					OFFSET -2.31924 -6.37207 0.00000
					CHANNELS 3 Zrotation Yrotation Xrotation
					JOINT RightToe
					{
						OFFSET -0.19473 -0.53502 1.87724
						CHANNELS 3 Zrotation Yrotation Xrotation
						End Site
						{
							OFFSET -0.00000 -0.00000 0.98293
						}
					}
				}
			}
		}
	}
	JOINT lowerback
	{
		OFFSET 0 0 0
		CHANNELS 3 Zrotation Yrotation Xrotation
		JOINT Chest
		{
			OFFSET -0.01120 1.87307 0.09613
			CHANNELS 3 Zrotation Yrotation Xrotation
			JOINT Chest2
			{
				OFFSET 0.01099 1.87818 0.04834
				CHANNELS 3 Zrotation Yrotation Xrotation
				JOINT lowerneck
				{
					OFFSET 0 0 0
					CHANNELS 3 Zrotation Yrotation Xrotation
					JOINT Neck
					{
						OFFSET 0.01702 1.40324 -0.12579
						CHANNELS 3 Zrotation Yrotation Xrotation
						JOINT Head
						{
							OFFSET -0.04239 1.38587 -0.01614
							CHANNELS 3 Zrotation Yrotation Xrotation
							End Site
							{
								OFFSET -0.02510 1.47031 -0.00154
							}
						}
					}
				}
				JOINT LeftCollar
				{
					OFFSET 0 0 0
					CHANNELS 3 Zrotation Yrotation Xrotation
					JOINT LeftShoulder
					{
						OFFSET 2.95699 0.62343 0.11653
CHANNELS 3 Zrotation Xrotation Yrotation
						JOINT LeftElbow
						{
OFFSET 0 -4.683820 -0.000000
CHANNELS 3 Zrotation Xrotation Yrotation
							JOINT LeftWrist
							{
OFFSET 0 -2.981240 -0.000000
CHANNELS 3 Zrotation Xrotation Yrotation
								JOINT lhand
								{
									OFFSET 0 0 0
CHANNELS 3 Zrotation Xrotation Yrotation
									JOINT LFingers
									{
OFFSET 0 -0.707590 0.000000
CHANNELS 3 Zrotation Xrotation Yrotation
										End Site
										{
OFFSET 0 -0.570480 0.000000
										}
									}
								}
								JOINT LThumb
								{
OFFSET 0 0.000000 0.000000
CHANNELS 3 Zrotation Xrotation Yrotation
									End Site
									{
OFFSET 0 -0.579190 0.579190
									}
								}
							}
						}
					}
				}
				JOINT RightCollar
				{
					OFFSET 0 0 0
					CHANNELS 3 Zrotation Yrotation Xrotation
					JOINT RightShoulder
					{
						OFFSET -2.99027 0.88714 -0.02793
CHANNELS 3 Zrotation Xrotation Yrotation
						JOINT RightElbow
						{
OFFSET 0 -4.758760 -0.000000
CHANNELS 3 Zrotation Xrotation Yrotation
							JOINT RightWrist
							{
OFFSET 0 -2.932930 -0.000000
CHANNELS 3 Zrotation Xrotation Yrotation
								JOINT rhand
								{
									OFFSET 0 0 0
CHANNELS 3 Zrotation Xrotation Yrotation
									JOINT RFingers
									{
OFFSET 0 -0.831750 0.000000
CHANNELS 3 Zrotation Xrotation Yrotation
										End Site
										{
OFFSET 0 -0.670580 0.000000
										}
									}
								}
								JOINT RThumb
								{
OFFSET 0 0.000000 0.000000
CHANNELS 3 Zrotation Xrotation Yrotation
									End Site
									{
OFFSET 0 -0.680820 0.680820
									}
								}
							}
						}
					}
				}
			}
		}
	}
}
MOTION
Frames: 6
Frame Time: 0.008333333333333333
-4.347521 12.975510 -5.267313 213.589898 -85.842066 -154.686623 0.000000 0.000000 0.000000 -20.281547 -4.647461 -86.373669 23.098915 19.768178 99.094402 -0.108078 -7.987036 -2.863933 0.113810 2.174501 5.988158 0.000000 0.000000 0.000000 39.568817 27.855745 -107.535830 -10.572676 -17.719480 61.385706 0.088341 -14.580566 -19.715326 -0.355352 -3.829596 10.597686 -3.948721 1.212274 14.649772 0.935689 0.922979 2.859205 3.054975 0.466118 -5.260290 -0.673941 3.449576 -11.103909 -1.712905 2.495561 -32.801241 -0.402532 0.334730 -8.550296 0.000000 0.000000 0.000000 -84.090079 -67.606631 -41.243958 3.375083 -5.822238 0.171672 24.096213 102.200650 -20.547455 0.000000 0.000000 0.000000 -7.125000 0.000000 0.000000 -4.562848 52.246381 0.816583 0.000000 0.000000 0.000000 14.495556 -29.522799 59.653378 -74.806218 -59.109348 -46.881097 -34.658545 -8.220654 9.531433 0.000000 0.000000 0.000000 7.125000 0.000000 0.000000 -6.871270 41.419182 -0.609781
-4.207188 12.954613 -5.281685 220.878948 -86.506889 -162.237656 0.000000 0.000000 0.000000 -19.699881 -5.274382 -85.754076 23.012378 19.780993 98.838641 0.037550 -7.801209 -6.197721 0.051668 1.433701 3.943535 0.000000 0.000000 0.000000 40.205879 27.746530 -107.833715 -10.482495 -17.672396 61.089224 0.040788 -14.121377 -19.595784 -0.411724 -4.117712 11.408263 -3.657150 1.152923 14.663954 1.007894 0.887762 3.065176 2.973186 0.434307 -5.044026 -1.218480 3.097271 -11.442418 -0.843688 2.193472 -32.923096 0.009738 0.163583 -8.566653 0.000000 0.000000 0.000000 -84.612137 -67.470623 -44.341083 3.249983 -5.608142 0.159206 25.324239 99.785243 -20.045075 0.000000 0.000000 0.000000 -7.125000 0.000000 0.000000 -3.181966 51.933929 0.543719 0.000000 0.000000 0.000000 14.623981 -29.866315 59.642092 -75.202521 -59.156218 -47.221287 -35.060658 -7.843056 9.731755 0.000000 0.000000 0.000000 7.125000 0.000000 0.000000 -7.240117 41.703371 -0.592133
-4.070570 12.930370 -5.296921 222.769910 -87.053467 -164.496097 0.000000 0.000000 0.000000 -19.647488 -6.042621 -84.804184 22.888312 19.798749 98.472154 0.248765 -7.060009 -9.479810 0.013580 0.749866 2.060824 0.000000 0.000000 0.000000 40.203630 27.556791 -108.216219 -10.399715 -17.628516 60.816003 0.056821 -14.018571 -19.257971 -0.424025 -4.178643 11.579859 -3.817690 1.059520 14.889394 0.957691 0.729838 3.050293 3.040447 0.362202 -5.171268 -0.958050 3.043152 -11.575751 -0.863032 2.115825 -32.671966 -0.040084 0.109153 -8.447428 0.000000 0.000000 0.000000 -84.101673 -67.485015 -46.308847 3.249396 -5.607134 0.159192 24.852205 97.838197 -20.230042 0.000000 0.000000 0.000000 -7.125000 0.000000 0.000000 -3.708815 52.046272 0.644286 0.000000 0.000000 0.000000 14.883597 -29.686948 59.712954 -75.759565 -59.219597 -47.699764 -35.065296 -7.051352 10.413560 0.000000 0.000000 0.000000 7.125000 0.000000 0.000000 -7.261844 42.520286 -0.446747
-3.932045 12.896882 -5.304136 230.915496 -87.695474 -172.643564 0.000000 0.000000 0.000000 -19.232393 -7.023619 -84.397664 22.840870 19.805417 98.332119 0.475966 -6.147381 -12.362132 0.006591 0.516506 1.419246 0.000000 0.000000 0.000000 40.749827 27.481776 -108.876531 -10.305189 -17.577872 60.503490 0.132754 -14.002526 -18.294533 -0.263408 -3.296640 9.106179 -3.614277 0.931320 14.783077 0.985079 0.602884 2.994445 2.978269 0.300274 -5.160338 -0.605463 2.977395 -11.293219 -0.963427 1.986573 -32.815598 -0.134542 0.016803 -8.537348 0.000000 0.000000 0.000000 -84.291792 -67.360131 -48.908859 3.292344 -5.680701 0.163410 23.869146 96.220897 -20.337876 0.000000 0.000000 0.000000 -7.125000 0.000000 0.000000 -4.732539 51.983345 0.815059 0.000000 0.000000 0.000000 14.972174 -29.263808 59.663734 -76.927007 -59.343174 -48.703508 -35.088615 -6.081872 11.132935 0.000000 0.000000 0.000000 7.125000 0.000000 0.000000 -7.297948 43.382984 -0.293102
-3.797345 12.870604 -5.314546 245.631351 -88.247332 -187.521040 0.000000 0.000000 0.000000 -18.760039 -7.899264 -84.066576 22.837999 19.805783 98.323539 0.684857 -5.346302 -14.736596 0.003418 0.373034 1.024930 0.000000 0.000000 0.000000 41.153879 27.318522 -109.376536 -10.228288 -17.536208 60.248641 0.138625 -13.694717 -17.744140 -0.300855 -3.525732 9.746169 -3.446751 0.798155 14.891242 1.038490 0.455923 2.943959 2.967775 0.230393 -5.260550 -0.249183 2.923010 -11.133652 -1.076864 1.866987 -32.885168 -0.233311 -0.070950 -8.581177 0.000000 0.000000 0.000000 -84.389537 -67.298893 -51.379772 3.276343 -5.653260 0.161842 24.177835 94.814192 -19.955724 0.000000 0.000000 0.000000 -7.125000 0.000000 0.000000 -4.316849 51.632489 0.706504 0.000000 0.000000 0.000000 14.940556 -28.947904 59.541860 -78.458238 -59.490476 -50.021692 -34.686098 -4.448024 13.041470 0.000000 0.000000 0.000000 7.125000 0.000000 0.000000 -6.932468 45.596163 0.101593
-3.656275 12.845702 -5.325190 261.025528 -88.650952 -202.638451 0.000000 0.000000 0.000000 -18.261409 -8.953558 -84.522614 22.882741 19.799580 98.455564 0.865610 -4.723350 -16.623771 0.003085 -0.312459 -0.858547 0.000000 0.000000 0.000000 41.087700 27.504258 -110.265205 -10.120849 -17.477201 59.891444 0.093954 -13.091822 -17.410289 -0.496166 -4.506695 12.508266 -3.420721 0.675505 14.608201 0.979029 0.313532 2.803418 2.916443 0.165948 -5.243451 0.556261 2.572392 -11.557414 -1.120628 1.256765 -32.800715 -0.362773 -0.479961 -8.477270 0.000000 0.000000 0.000000 -84.723534 -67.258550 -54.165863 3.260319 -5.625793 0.160242 23.801449 93.243462 -20.591758 0.000000 0.000000 0.000000 -7.125000 0.000000 0.000000 -4.874465 52.239584 0.872159 0.000000 0.000000 0.000000 15.155998 -28.951055 59.578073 -78.723110 -59.513984 -50.249863 -34.605709 -4.683074 12.902958 0.000000 0.000000 0.000000 7.125000 0.000000 0.000000 -6.857008 45.420797 0.071469
